<?xml version="1.0" encoding="UTF-8"?>
<svg id="Camada_2" data-name="Camada 2" xmlns="http://www.w3.org/2000/svg" viewBox="0 0 1159.68 241.77">
  <defs>
    <style>
      .cls-1 {
        fill: #fff;
      }

      .cls-2 {
        fill: none;
      }

      .cls-3 {
        fill: #555;
      }

      .cls-4 {
        fill: #46a9fd;
      }
    </style>
  </defs>
  <g id="Camada_1-2" data-name="Camada 1">
    <path class="cls-2" d="M181.6,165.86c-.81.95-3.69,4.92-3.81,6.89l7.88-10.27-1.22.68c-1.02.8-1.98,1.69-2.85,2.7Z"/>
    <path class="cls-2" d="M79.85,163.16l-6.78-3.77c-3.91-1.53-8.15-2.41-12.2-3.21-4.34-.85-16.76-3.22-20.38-2.11-5.05,1.56-.09,12.45,2.12,15.39,1.35,1.78,4.7,4.15,6.91,4.15h36.77c1.24-1.26-2.62-6.63-3.59-7.75-.87-1.01-1.83-1.9-2.85-2.7Z"/>
    <path class="cls-2" d="M123.27,101.73h-47.21c-1.49,0-3.85,2.96-4.71,4.13-2.37,3.23-13.28,21.54-14.1,24.6-1.78,6.58,11.06,11.78,15.79,12.51h125.49c.93-.14,1.89-.47,2.83-.93l5.92-7.72c.19-1.21.15-2.51-.22-3.86-.12-.46-.47-1.25-.98-2.28h-49.8v-26.45h-33Z"/>
    <path class="cls-2" d="M156.58,169.26c-5.95,0-14.57,4.36-24.42,4.35-9.85.02-18.48-4.35-24.42-4.35-4.41,0-9.11,9.99-5.39,14.75h59.62c3.73-4.75-.98-14.75-5.39-14.75Z"/>
    <circle class="cls-2" cx="41.75" cy="42.4" r="20.78" transform="translate(-17.75 41.94) rotate(-45)"/>
    <path class="cls-4" d="M41.45,117.78l37.23-57.33c9.54-18.63,2.85-42.04-14.33-53.48-5.54-3.69-11.32-5.17-17.64-6.96h-10.51l-9.69,2.75C2.29,13.18-7.03,39.34,5.7,62.85c9.93,18.34,24.64,35.77,34.8,54.2l.95.72ZM20.97,42.4c0-11.48,9.3-20.78,20.78-20.78s20.78,9.3,20.78,20.78-9.3,20.78-20.78,20.78-20.78-9.3-20.78-20.78Z"/>
    <path class="cls-3" d="M207.28,134.33l4.72-6.15h-5.92c.51,1.03.86,1.83.98,2.28.37,1.36.41,2.65.22,3.86Z"/>
    <path class="cls-3" d="M181.6,165.86c.87-1.01,1.83-1.9,2.85-2.7l1.22-.68,15.69-20.44c-.93.47-1.9.79-2.83.93h-125.49c-4.74-.74-17.57-5.93-15.79-12.51.83-3.06,11.73-21.37,14.1-24.6.86-1.18,3.23-4.13,4.71-4.13h80.22v-5.05h42.96c-2.27-2.62-4.93-4.42-8.37-5.32l-57.91-.12c-.23.04-.51.18-.81.38-.3-.2-.58-.33-.81-.38l-57.91.12c-3.59.94-6.35,2.87-8.69,5.69l-16.6,25.98c-6.31,1.55-20.53-1.65-25.63,1.46-2.96,1.8-5.6,10.6-3.39,13.17,1.83,2.13,11.1,2.67,14.08,2.78.99.86-6.47,7.47-6.11,9.09v68.06c-.07,3.84,3.35,6.9,6.99,7.39,5.33.72,22.77.72,28.1,0,5.62-.76,7-13.89,6.41-18.94l54.68-4.23h17.75l13.64,1.06,23.12-30.12c.13-1.97,3-5.94,3.81-6.89ZM86.29,173.61h-36.77c-2.21,0-5.57-2.36-6.91-4.15-2.21-2.94-7.17-13.83-2.12-15.39,3.61-1.12,16.04,1.25,20.38,2.11,4.05.8,8.3,1.68,12.2,3.21l6.78,3.77c1.02.8,1.98,1.69,2.85,2.7.96,1.12,4.82,6.49,3.59,7.75ZM102.34,184.01c-3.73-4.75.98-14.75,5.39-14.75,5.95,0,14.57,4.36,24.42,4.35,9.85.02,18.48-4.35,24.42-4.35,4.41,0,9.11,9.99,5.39,14.75h-59.62Z"/>
    <g>
      <polygon points="147.19 237.27 147.19 205.22 202.87 132.68 151.78 132.68 151.78 92.17 267.56 92.17 267.56 124.6 213.54 196.16 269.46 196.16 269.46 237.27 147.19 237.27"/>
      <path class="cls-1" d="M263.06,96.67v26.42l-25.86,34.25-32.7,43.32h60.45v32.1h-113.26v-26.02l2.98-3.88,23.12-30.12,7.88-10.27,15.69-20.44,5.92-7.72,4.72-6.15h-55.72v-31.51h106.78M272.06,87.67h-124.78v49.51h46.47l-15.22,19.82-7.88,10.27-23.12,30.12-2.98,3.88-1.86,2.42v38.08h131.26v-50.1h-51.38l21.81-28.9,25.86-34.25,1.82-2.41v-38.44h0Z"/>
    </g>
    <path d="M344.34,194.78l37.09,2.49c-2.19,9.97-7.79,18.46-16.8,25.47-9.01,7.01-21.19,10.52-36.54,10.52-17.08,0-30.71-4.94-40.88-14.81-10.17-9.87-15.25-22.12-15.25-36.74s5.02-27.95,15.06-38.39c10.04-10.43,23.43-15.65,40.18-15.65s29.33,4.92,39.33,14.76c10,9.84,15.01,23.23,15.01,40.18,0,1.4-.03,3.32-.1,5.78h-67.9c.13,6.38,1.26,11.12,3.39,14.21,2.13,3.09,6.18,4.64,12.16,4.64,8.64,0,13.73-4.15,15.25-12.46ZM341.65,168.46c-.07-6.84-1.44-11.45-4.12-13.81-2.68-2.36-6.01-3.54-9.98-3.54-9.41,0-14.11,5.78-14.11,17.35h28.22Z"/>
    <path d="M496.09,231.17h-39.78v-63.81c0-5.25-.81-8.61-2.44-10.07-1.63-1.46-3.67-2.19-6.13-2.19-7.25,0-10.87,5.05-10.87,15.16v60.92h-39.78v-101.4h36.89v14.36c5.45-10.97,15.19-16.45,29.21-16.45,7.38,0,13.61,1.41,18.69,4.24,5.08,2.83,8.72,6.48,10.92,10.97,2.19,4.49,3.29,12.28,3.29,23.38v64.91Z"/>
    <path d="M579.64,129.77v25.82h-20.24v37.39c0,5.12.96,8.16,2.89,9.12,1.93.96,3.92,1.45,5.98,1.45,3.19,0,6.98-.56,11.37-1.69v28.32c-7.84,1.53-15.55,2.29-23.13,2.29-12.23,0-21.22-2.62-26.97-7.88-5.75-5.25-8.62-13.62-8.62-25.13l.1-11.86v-32h-15.16v-25.82h15.16l.6-33,37.79-.6v33.6h20.24Z"/>
    <path d="M630.99,231.17h-38.09v-101.4h33.1v20.94c3.79-15.22,12.6-22.83,26.42-22.83,1.4,0,3.32.13,5.78.4v35.4c-2.79-.66-5.28-1-7.48-1-13.16,0-19.74,7.34-19.74,22.03v46.46Z"/>
    <path d="M769.38,129.77v101.4h-36.79v-16.65c-5.38,12.5-15.89,18.74-31.51,18.74-9.64,0-17.1-2.67-22.38-8.03-5.28-5.35-7.93-13.01-7.93-22.98v-72.48h39.78v63.81c0,3.99.55,6.8,1.64,8.42,1.1,1.63,3.24,2.44,6.43,2.44,3.39,0,6.15-1.21,8.28-3.64,2.13-2.43,3.19-5.83,3.19-10.22v-60.82h39.28Z"/>
    <g>
      <path class="cls-4" d="M992.13,188.96v41.57h-15.9v-41.57h-11.33v-13.09h38.56v13.09h-11.33Z"/>
      <path class="cls-4" d="M1057.81,175.86l-16.96,54.66h-17.1l-17.74-54.66h17.68l8.65,29.79c.59,1.76,1.11,3.5,1.57,5.21l10.1-35h13.8Z"/>
      <path class="cls-4" d="M1062.85,230.53v-54.66h21.14c9.18,0,16.06,2.72,20.62,8.17,4.57,5.45,6.85,11.75,6.85,18.9,0,8.17-2.45,14.81-7.35,19.92-4.9,5.11-11.26,7.67-19.08,7.67h-22.19ZM1079.63,217.95h4.37c2.78,0,5.12-1.35,7.03-4.04,1.91-2.7,2.86-6.37,2.86-11.01,0-3.98-.85-7.41-2.54-10.29-1.7-2.88-4.15-4.33-7.35-4.33h-4.37v29.67Z"/>
      <path class="cls-4" d="M1159.68,217.47v13.06h-41.13v-54.66h41.13v12.61h-24.67v7.93h19.94v12.13h-19.94v8.93h24.67Z"/>
    </g>
    <path d="M943.96,231.17h-38.59v-63.41c0-4.25-.62-7.23-1.84-8.92-1.23-1.7-3.41-2.54-6.53-2.54-7.44,0-11.17,5.42-11.17,16.25v58.63h-38.19v-63.41c0-8.11-3.12-12.16-9.37-12.16s-9.67,4.05-9.67,12.16v63.41h-38.29v-101.4h35.69v13.66c6.38-10.5,15.65-15.75,27.82-15.75,13.09,0,22.6,5.25,28.51,15.75,6.58-10.5,16.68-15.75,30.31-15.75,6.51,0,12.25,1.36,17.2,4.09,4.95,2.73,8.54,6.23,10.77,10.52,2.23,4.29,3.34,10.92,3.34,19.89v69Z"/>
  </g>
</svg>